Coordinates
version=1
nRows=10
nColumns=46
inDegrees=yes

Units are S.I. units (second, meters, Newtons, ...)
Angles are in degrees.

endheader
time	pelvis_tilt	pelvis_list	pelvis_rotation	pelvis_tx	pelvis_ty	pelvis_tz	bb_angle	bb_tx	bb_ty	bb_tz	hip_flexion_r	hip_adduction_r	hip_rotation_r	knee_angle_r	knee_angle_r_beta	ankle_angle_r	subtalar_angle_r	mtp_angle_r	crank_angle_r	hip_flexion_l	hip_adduction_l	hip_rotation_l	knee_angle_l	knee_angle_l_beta	ankle_angle_l	subtalar_angle_l	mtp_angle_l	crank_angle_l	lumbar_extension	lumbar_bending	lumbar_rotation	arm_flex_r	arm_add_r	arm_rot_r	elbow_flex_r	pro_sup_r	wrist_flex_r	wrist_dev_r	arm_flex_l	arm_add_l	arm_rot_l	elbow_flex_l	pro_sup_l	wrist_flex_l	wrist_dev_l
      5.00000000	    -21.36502374	      5.54594559	     14.49841424	      0.32823240	      1.22441429	     -0.23895869	      0.00000000	      0.50000000	      0.00000000	      0.25000000	     36.73666422	    -11.27678686	      3.37732454	     59.40312292	      1.03678008	    -36.98429667	     -9.04447811	      0.00000000	      0.00000000	     57.82719596	      9.45015960	      2.79769370	     67.60776561	      1.17997811	     13.29668674	     -5.94197133	      0.00000000	      0.00000000	    -66.77075160	      5.59127230	     -6.03866074	     40.91712530	    -11.88294154	      4.79207993	     99.80424602	     51.01037494	      0.00000000	      0.00000000	     52.59945490	    -13.22778710	     19.75216585	     88.12468804	     56.03583977	      0.00000000	      0.00000000
      5.00500000	    -21.31277940	      4.48239297	     14.92414675	      0.32718710	      1.22369587	     -0.23785539	      0.00000000	      0.50000000	      0.00000000	      0.25000000	     37.80789987	    -10.28069491	      2.89379487	     61.60380547	      1.07518924	    -36.83033581	     -9.31519343	      0.00000000	      0.00000000	     57.10417759	      8.69967412	      3.58878872	     65.52436042	      1.14361583	     11.94217748	     -5.03022794	      0.00000000	      0.00000000	    -66.57889156	      6.59941636	     -6.99484993	     42.47470715	    -10.93200612	      7.01367286	     98.05022621	     50.99450347	      0.00000000	      0.00000000	     51.68043961	    -15.35963854	     18.72922968	     90.05912277	     56.20124575	      0.00000000	      0.00000000
      5.01000000	    -21.13113893	      3.80081577	     15.02092375	      0.32740504	      1.22347547	     -0.23750434	      0.00000000	      0.50000000	      0.00000000	      0.25000000	     38.63657028	     -9.65678716	      2.56133539	     63.72620358	      1.11223207	    -36.35972799	     -9.44222592	      0.00000000	      0.00000000	     55.92612801	      8.02554312	      4.06951174	     63.30573149	      1.10489345	     10.86570362	     -4.21826134	      0.00000000	      0.00000000	    -66.59896501	      7.05365366	     -6.64711659	     42.59543135	    -10.85743041	      7.00662291	     97.96292746	     50.98213840	      0.00000000	      0.00000000	     51.54773807	    -15.54556474	     18.55720667	     90.13259812	     56.18896004	      0.00000000	      0.00000000
      5.01500000	    -20.93198341	      3.77480331	     14.87200326	      0.32882174	      1.22389383	     -0.23807118	      0.00000000	      0.50000000	      0.00000000	      0.25000000	     39.28630092	     -9.69503506	      2.51674660	     65.87471973	      1.14973075	    -35.40913338	     -9.51644916	      0.00000000	      0.00000000	     54.25267931	      7.72639192	      3.89083675	     60.71251232	      1.05963324	      9.77930482	     -3.82017251	      0.00000000	      0.00000000	    -66.79379630	      7.07876994	     -6.82369434	     42.69032805	    -10.75542733	      7.09018059	     97.77803544	     50.94484377	      0.00000000	      0.00000000	     51.21139154	    -15.75002090	     18.23480202	     90.37979989	     56.13252637	      0.00000000	      0.00000000
      5.02000000	    -20.77528565	      3.06657083	     14.79144237	      0.32922496	      1.22324912	     -0.23753977	      0.00000000	      0.50000000	      0.00000000	      0.25000000	     40.14829323	     -8.98037140	      2.16443054	     68.06549110	      1.18796693	    -34.44455099	     -9.95721455	      0.00000000	      0.00000000	     52.99120646	      6.89278021	      4.10329854	     58.42992768	      1.01979462	      8.84307301	     -3.49659623	      0.00000000	      0.00000000	    -66.74036355	      7.40903218	     -6.37414707	     42.74084935	    -10.63392193	      7.20527994	     97.65810876	     50.93964830	      0.00000000	      0.00000000	     50.98349349	    -16.04538331	     18.07495039	     90.48384940	     56.12956535	      0.00000000	      0.00000000
      5.02500000	    -20.73668986	      2.79302115	     14.58969645	      0.32952443	      1.22222991	     -0.23716386	      0.00000000	      0.50000000	      0.00000000	      0.25000000	     41.19916231	     -8.71276001	      2.08387988	     70.50246992	      1.23050023	    -32.71557347	    -10.12753476	      0.00000000	      0.00000000	     51.67228682	      6.36976177	      4.04132283	     56.00789175	      0.97752212	      7.33911794	     -3.33875685	      0.00000000	      0.00000000	    -66.51982941	      7.61585603	     -8.08785721	     44.02175600	     -8.91507426	      9.01555523	     95.52950416	     50.83924894	      0.00000000	      0.00000000	     49.22121866	    -18.29849913	     16.23895698	     92.81909710	     56.24243369	      0.00000000	      0.00000000
      5.03000000	    -20.65759613	      2.16582075	     14.29832206	      0.32984889	      1.22089795	     -0.23655991	      0.00000000	      0.50000000	      0.00000000	      0.25000000	     42.23685918	     -8.01846766	      1.82701855	     72.81782312	      1.27091077	    -31.24410489	    -10.80241617	      0.00000000	      0.00000000	     50.42594126	      5.48159804	      4.18536946	     53.72650051	      0.93770433	      6.26579900	     -2.78844058	      0.00000000	      0.00000000	    -66.30281971	      7.70363240	     -7.62677694	     43.96575683	     -8.88185539	      9.17775261	     95.40597552	     50.84289533	      0.00000000	      0.00000000	     48.87465061	    -18.46984333	     16.10621360	     92.86463856	     56.23134073	      0.00000000	      0.00000000
      5.03500000	    -20.60505927	      1.50025133	     13.95208222	      0.33016037	      1.21937237	     -0.23610725	      0.00000000	      0.50000000	      0.00000000	      0.25000000	     43.34463409	     -7.27654124	      1.61207070	     75.10116048	      1.31076252	    -29.88434591	    -11.37392622	      0.00000000	      0.00000000	     49.14424374	      4.59379410	      4.46550425	     51.40906762	      0.89725750	      5.36005875	     -2.31458540	      0.00000000	      0.00000000	    -66.04852879	      7.83866315	     -7.00967219	     43.91417457	     -8.79254456	      9.37546555	     95.27864084	     50.84663604	      0.00000000	      0.00000000	     48.53863788	    -18.68771785	     15.96530427	     92.92363392	     56.22395676	      0.00000000	      0.00000000
      5.04000000	    -20.77044355	      1.30893486	     13.34600576	      0.33046884	      1.21738441	     -0.23542430	      0.00000000	      0.50000000	      0.00000000	      0.25000000	     44.78407637	     -6.84514207	      1.96674741	     77.62985311	      1.35489653	    -27.65449192	    -11.14581700	      0.00000000	      0.00000000	     47.89118275	      3.91503557	      4.12688945	     48.96835868	      0.85465909	      4.06377775	     -2.17680943	      0.00000000	      0.00000000	    -65.54807544	      7.39880265	     -7.23046164	     43.86830408	     -8.60803164	     10.08634177	     94.77235266	     50.85442527	      0.00000000	      0.00000000	     47.76393568	    -19.08011476	     15.44827153	     93.34818610	     56.22183226	      0.00000000	      0.00000000
      5.04500000	    -20.70062699	      0.65350028	     12.87418372	      0.33082277	      1.21546813	     -0.23489089	      0.00000000	      0.50000000	      0.00000000	      0.25000000	     45.93316676	     -6.02812197	      1.84445222	     79.95149492	      1.39541683	    -25.77301537	    -11.38496372	      0.00000000	      0.00000000	     46.56156136	      2.93669459	      4.23306890	     46.75611256	      0.81604811	      3.05301764	     -1.79049262	      0.00000000	      0.00000000	    -65.18401291	      7.68821510	     -8.23290306	     45.03546418	     -7.22825426	     12.20126894	     92.66183939	     50.79461547	      0.00000000	      0.00000000	     45.70066514	    -20.77909274	     13.30488156	     95.26168150	     56.20091678	      0.00000000	      0.00000000
